<svg width="22" height="22" viewBox="0 0 22 22" fill="none" xmlns="http://www.w3.org/2000/svg">
<path d="M5.28749 14.5024L4.39966 14.0422C4.23899 14.3522 4.25164 14.7236 4.43304 15.0219C4.61445 15.3203 4.93833 15.5024 5.28749 15.5024V14.5024ZM16.7157 14.5024V15.5024C17.0649 15.5024 17.3887 15.3203 17.5701 15.0219C17.7516 14.7236 17.7642 14.3522 17.6035 14.0422L16.7157 14.5024ZM20.0032 14.5024H21.0032C21.0032 13.9501 20.5555 13.5024 20.0032 13.5024V14.5024ZM3.70048 8.30112H2.70048H3.70048ZM20.0032 16.5024V17.5024C20.5555 17.5024 21.0032 17.0547 21.0032 16.5024H20.0032ZM8.57778 18.6039L9.44432 19.103L8.57778 18.6039ZM13.4254 18.6039L14.2919 18.1048L13.4254 18.6039ZM13.4239 19.6048L14.2889 20.1066H14.2889L13.4239 19.6048ZM8.57932 19.6048L7.71432 20.1066L8.57932 19.6048ZM6.70048 8.30112C6.70048 5.92568 8.62615 4 11.0016 4V2C7.52158 2 4.70048 4.82111 4.70048 8.30112H6.70048ZM6.70048 12.8019V8.30112H4.70048V12.8019H6.70048ZM6.17532 14.9626C6.51118 14.3146 6.70048 13.5789 6.70048 12.8019H4.70048C4.70048 13.2511 4.5916 13.6719 4.39966 14.0422L6.17532 14.9626ZM16.7157 13.5024H5.28749V15.5024H16.7157V13.5024ZM15.3027 12.8019C15.3027 13.5789 15.492 14.3146 15.8279 14.9626L17.6035 14.0422C17.4116 13.6719 17.3027 13.2511 17.3027 12.8019H15.3027ZM15.3027 8.30112V12.8019H17.3027V8.30112H15.3027ZM11.0016 4C13.377 4 15.3027 5.92568 15.3027 8.30112H17.3027C17.3027 4.82111 14.4816 2 11.0016 2V4ZM20.0032 13.5024C19.6163 13.5024 19.3027 13.1888 19.3027 12.8019H17.3027C17.3027 14.2933 18.5118 15.5024 20.0032 15.5024V13.5024ZM19.3027 12.8019V8.30112H17.3027V12.8019H19.3027ZM19.3027 8.30112C19.3027 3.71654 15.5862 0 11.0016 0V2C14.4816 2 17.3027 4.82111 17.3027 8.30112H19.3027ZM11.0016 0C6.41701 0 2.70048 3.71654 2.70048 8.30112H4.70048C4.70048 4.82111 7.52158 2 11.0016 2V0ZM2.70048 8.30112V12.8019H4.70048V8.30112H2.70048ZM2.70048 12.8019C2.70048 13.1888 2.38686 13.5024 2 13.5024V15.5024C3.49143 15.5024 4.70048 14.2933 4.70048 12.8019H2.70048ZM2 13.5024C0.895431 13.5024 0 14.3978 0 15.5024H2V13.5024ZM0 15.5024C0 16.607 0.895431 17.5024 2 17.5024V15.5024H0ZM2 17.5024H20.0032V15.5024H2V17.5024ZM21.0032 16.5024V14.5024H19.0032V16.5024H21.0032ZM9.44432 17.103C8.72906 17.103 8.06824 17.485 7.71125 18.1048L9.44432 19.103V17.103ZM12.5589 17.103H9.44432V19.103H12.5589V17.103ZM14.2919 18.1048C13.9349 17.485 13.2741 17.103 12.5589 17.103V19.103L14.2919 18.1048ZM14.2889 20.1066C14.6478 19.4879 14.6489 18.7246 14.2919 18.1048L12.5589 19.103H12.5589L14.2889 20.1066ZM11.0016 22C12.3565 22 13.609 21.2786 14.2889 20.1066L12.5589 19.103C12.2368 19.6583 11.6435 20 11.0016 20V22ZM7.71432 20.1066C8.39419 21.2786 9.64665 22 11.0016 22V20C10.3597 20 9.76639 19.6583 9.44432 19.103L7.71432 20.1066ZM7.71125 18.1048C7.35425 18.7246 7.35542 19.4879 7.71432 20.1066L9.44432 19.103L7.71125 18.1048Z" fill="#B1B4CE"/>
</svg>
